<?xml version="1.0" encoding="utf-8"?><svg xmlns="http://www.w3.org/2000/svg" xmlns:xlink="http://www.w3.org/1999/xlink"><symbol viewBox="0 0 23 26" id="9gag" xmlns="http://www.w3.org/2000/svg"><path fill="#fff" d="M11.537-.046c3.722 2.13 7.45 4.252 11.168 6.39-.004 4.27-.006 8.539.002 12.809-3.715 2.14-7.448 4.248-11.171 6.376-3.734-2.146-7.486-4.257-11.207-6.42 1.485-.843 2.968-1.687 4.455-2.524 2.25 1.291 4.507 2.575 6.75 3.875 2.24-1.31 4.51-2.569 6.742-3.891-.02-1.71-.003-3.416-.01-5.126a3321.698 3321.698 0 01-6.731 3.877C7.81 13.21 4.095 11.077.369 8.963c0-.872.002-1.744-.002-2.613C4.09 4.214 7.813 2.082 11.537-.046zm-.002 10.297c1.526-.872 3.05-1.744 4.577-2.615-1.529-.865-3.05-1.743-4.577-2.612-1.519.868-3.032 1.748-4.553 2.608 1.51.883 3.037 1.743 4.553 2.619z"/></symbol><symbol viewBox="0 0 1024 1024" id="advantages-01" xmlns="http://www.w3.org/2000/svg"><path fill="#dfe7f4" d="M30 812v120h964V812H30zM512 92H30v120h964V92H512z"/><path fill="#c7cfe1" d="M512 92h482v120H512V92zm0 720h482v120H512V812z"/><path fill="#ff641a" d="M512 212H60v600h904V212H512z"/><path fill="#f03800" d="M512 212h452v600H512V212z"/><path fill="#ffb900" d="M0 782v180h1024V782H0zm162 120H60v-60h102v60zm160 0H222v-60h100v60zm160 0H382v-60h100v60zm380-60h102v60H862v-60zm-160 0h100v60H702v-60zm-160 0h100v60H542v-60zM512 62H0v180h1024V62H512zM162 182H60v-60h102v60zm160 0H222v-60h100v60zm160 0H382v-60h100v60zm160 0H542v-60h100v60zm160 0H702v-60h100v60zm162 0H861.8v-60H964v60z"/><path fill="#ce8e00" d="M642 182H542v-60h100v60zm160 0H702v-60h100v60zM512 62v180h512V62H512zm452 120H861.8v-60H964v60zm60 600H512v180h512V782zM642 902H542v-60h100v60zm160 0H702v-60h100v60zm162 0H862v-60h102v60z"/><path fill="#f0f7ff" d="M512 396l-90-60v352l264-176-174-116z"/><path fill="#dfe7f4" d="M512 396v232l174-116-174-116z"/></symbol><symbol viewBox="0 0 1049 1024" id="advantages-02" xmlns="http://www.w3.org/2000/svg"><path fill="#b38a65" d="M509.847 972.697H272.43c-73.397 0-133.126-59.729-133.126-133.126V634.734h61.414v204.837c0 39.507 32.205 71.712 71.712 71.712h237.604v61.414zm399.377-559.09H847.81V384.96c0-178.437-145.109-323.546-323.546-323.546S200.718 206.523 200.718 384.96v28.647h-61.414V384.96C139.304 172.633 311.937 0 524.264 0s384.96 172.633 384.96 384.96v28.647z"/><path fill="#a17852" d="M524.264 0v61.414c178.437 0 323.546 145.109 323.546 323.546v28.647h61.414V384.96C909.224 172.633 736.591 0 524.264 0z"/><path fill="#ff7a53" d="M282.541 665.441H141.177c-77.891 0-141.364-63.473-141.364-141.364s63.473-141.364 141.364-141.364h141.364v282.728z"/><path fill="#a81300" d="M907.164 665.441H765.8V382.9h141.364c77.891 0 141.364 63.473 141.364 141.364s-63.473 141.177-141.364 141.177z"/><path fill="#ffdb2d" d="M524.264 862.04c-167.203 0-303.137-135.934-303.137-303.137V442.254c0-141.177 114.776-255.953 255.953-255.953h94.18c141.177 0 255.953 114.776 255.953 255.953v116.649c.187 167.203-135.747 303.137-302.95 303.137z"/><path fill="#ff9a00" d="M571.448 186.301h-47.184V862.04c167.203 0 303.137-135.934 303.137-303.137V442.254c0-141.177-114.964-255.953-255.953-255.953z"/><path fill="#ff4f19" d="M282.541 665.441H139.117V382.9h143.424v282.541z"/><path fill="#ff3200" d="M909.224 665.441H765.8V382.9h143.424v282.541z"/><path fill="#9a4c00" d="M524.264 1023.813c-45.124 0-82.01-36.698-82.01-82.01 0-45.124 36.698-82.01 82.01-82.01s82.01 36.698 82.01 82.01c0 45.311-36.886 82.01-82.01 82.01z"/><path fill="#fff5cb" d="M524.264 730.974c-55.235 0-107.1-21.532-146.232-60.665l43.439-43.439c27.524 27.524 64.035 42.503 102.793 42.503s75.269-15.166 102.793-42.503l43.439 43.439c-39.133 39.133-90.997 60.665-146.232 60.665z"/><path fill="#ffdba9" d="M627.057 627.057c-27.524 27.524-64.035 42.503-102.793 42.503v61.414c55.235 0 107.1-21.532 146.232-60.665l-43.439-43.252z"/><path fill="#703700" d="M524.264 859.98v163.833c45.124 0 82.01-36.698 82.01-82.01 0-44.937-36.886-81.823-82.01-81.823z"/></symbol><symbol viewBox="0 0 1024 1024" id="advantages-03" xmlns="http://www.w3.org/2000/svg"><path fill="#ffa820" d="M952.4 0v718.6c-.6 100.6-82.4 182.2-183.2 182.2-101 0-183.2-82.2-183.2-183.2s82.2-183.2 183.2-183.2c47.4 0 90.6 18 123.2 47.6V317.8L366.4 476v365.2C366.2 942 284 1024 183.2 1024 82.2 1024 0 941.8 0 840.8s82.2-183.2 183.2-183.2c47.4 0 90.6 18 123.2 47.6v-511L952.4 0z"/><path fill="#ff8700" d="M952.4 0v718.6c-.6 100.6-82.4 182.2-183.2 182.2-101 0-183.2-82.2-183.2-183.2s82.2-183.2 183.2-183.2c47.4 0 90.6 18 123.2 47.6V317.8l-316.4 95V113L952.4 0z"/></symbol><symbol viewBox="0 0 10 6" id="arrow-down" xmlns="http://www.w3.org/2000/svg"><path d="M0 .833a.82.82 0 00.253.59L5 6l4.747-4.577A.815.815 0 009.75.246.876.876 0 008.54.242L5 3.655 1.461.242A.876.876 0 00.25.246.818.818 0 000 .833z"/></symbol><symbol viewBox="0 0 30 31" id="bandcamp" xmlns="http://www.w3.org/2000/svg"><path fill="#fff" d="M29.998 15.772c0 8.284-6.716 15-15 15-8.283 0-14.999-6.716-14.999-15C0 7.49 6.715.773 15 .773c8.283 0 14.999 6.716 14.999 15zm-3.865-6.746H10.1L3.864 22.52h16.032z"/></symbol><symbol viewBox="0 0 24 24" id="blogger" xmlns="http://www.w3.org/2000/svg"><path d="M5.945 23.872c.793.145 10.57.177 11.572.042 1.741-.235 3.108-.937 4.388-2.245.927-.949 1.505-1.972 1.886-3.328.263-.943.241-7.652.134-8.129l-.001.001c-.405-1.808-2.363-.721-3.546-1.404-.541-.317-.686-.66-.692-1.581-.011-3.265-2.746-6.163-5.7-7.063-.317-.096-1.023-.129-3.391-.155-3.718-.042-4.543.032-5.807.536C2.458 1.467.785 3.429.175 5.937c-.112.471-.139 1.227-.166 5.567-.032 5.439.006 6.237.343 7.314.835 2.659 3.209 4.625 5.593 5.054zm11.262-8.471c.648.606.509 1.671-.263 2.112v-.001l-.798.129c-2.333.007-8.517.165-9.022-.059-.381-.166-.74-.627-.798-1.039-.059-.391.139-.927.439-1.2.381-.343.546-.353 5.213-.359 4.8-.007 4.774-.007 5.229.417zM6.667 6.807l.001-.002c.418-.423.536-.439 3.15-.439 2.352 0 2.432.006 2.775.182.498.251.718.606.718 1.174 0 .509-.203.868-.659 1.158-.423.266-5.134.185-5.416.113-.891-.251-1.223-1.527-.569-2.186z"/></symbol><symbol viewBox="0 0 37 30" id="break" xmlns="http://www.w3.org/2000/svg"><path d="M25.663 21.636l-2.006 2.563-2.102 2.684-2.004 2.563c-.58.738-1.525.738-2.103 0l-2.006-2.563-2.102-2.684-2.005-2.563c-.579-.738-.276-1.341.673-1.341h3.188V11.34h6.608v8.955h3.187c.949 0 1.251.603.672 1.34zM37 15.666c0 4.84-4 8.764-8.933 8.764h-2.434l1.387-1.772c.687-.878.838-1.863.414-2.71-.425-.845-1.316-1.33-2.445-1.33h-1.476V9.664H13.486v8.952H12.01c-1.129 0-2.02.486-2.444 1.33-.424.843-.274 1.832.414 2.712l1.386 1.77H7.064C3.164 24.429 0 21.326 0 17.5c0-3.647 2.875-6.63 6.521-6.903 0-.01-.003-.017-.003-.027C6.518 4.734 11.342 0 17.293 0c4.645.001 8.594 2.893 10.106 6.935.221-.015.444-.032.67-.032 4.932 0 8.93 3.925 8.93 8.765z"/></symbol><symbol viewBox="0 0 30 31" id="buzzfeed" xmlns="http://www.w3.org/2000/svg"><path fill="#fff" d="M0 15.371C0 7.085 6.718.368 15.004.368S30.008 7.085 30.008 15.37c0 8.286-6.718 15.004-15.004 15.004S0 23.657 0 15.37zm24.506-.344v.003-.002zM15.22 9.643l3.199 1.853-3.023 5.26-5.235-3.037-5.16 8.977 2.891 1.677 3.491-6.073 5.234 3.036 4.69-8.161 3.199 1.852-1.214-8.658z"/></symbol><symbol viewBox="0 0 17 18" id="calendar" xmlns="http://www.w3.org/2000/svg"><path fill="#ffb800" d="M5.921 9.632v1.328c0 .21-.17.38-.38.38H4.213a.38.38 0 01-.38-.38V9.632c0-.21.17-.38.38-.38h1.328c.21 0 .38.17.38.38zM9.24 10.96c0 .21-.17.38-.38.38H7.53a.38.38 0 01-.38-.38V9.632c0-.21.17-.38.38-.38h1.33c.21 0 .38.17.38.38zm3.318 0c0 .21-.17.38-.38.38H10.85a.38.38 0 01-.38-.38V9.632c0-.21.17-.38.38-.38h1.328c.21 0 .38.17.38.38zm-6.636 1.992v1.327c0 .21-.17.38-.38.38H4.213a.38.38 0 01-.38-.38v-1.327c0-.21.17-.38.38-.38h1.328c.21 0 .38.17.38.38zm3.318 1.327c0 .21-.17.38-.38.38H7.53a.38.38 0 01-.38-.38v-1.327c0-.21.17-.38.38-.38h1.33c.21 0 .38.17.38.38zm3.318-1.327v1.327c0 .21-.17.38-.38.38H10.85a.38.38 0 01-.38-.38v-1.327c0-.21.17-.38.38-.38h1.328c.21 0 .38.17.38.38zM16.39 3.75v11.887c0 .83-.674 1.512-1.502 1.512H1.502A1.51 1.51 0 010 15.637V3.75a1.51 1.51 0 011.459-1.502v2.029c0 .917.743 1.655 1.66 1.655h1.047c.916 0 1.67-.738 1.67-1.655V2.24h4.719v2.036c0 .917.753 1.655 1.67 1.655h1.046c.917 0 1.66-.738 1.66-1.655V2.248c.8.025 1.459.688 1.459 1.502zm-1.945 11.147v-6.14a.65.65 0 00-.65-.65H2.566a.65.65 0 00-.65.65v6.14c0 .359.291.65.65.65h11.23a.65.65 0 00.649-.65zM2.545 4.276V.951a.57.57 0 01.57-.57H4.15a.57.57 0 01.569.57v3.325a.57.57 0 01-.57.57H3.116a.57.57 0 01-.57-.57zm9.097 0V.951a.57.57 0 01.569-.57h1.036a.57.57 0 01.569.57v3.325a.57.57 0 01-.57.57h-1.035a.57.57 0 01-.57-.57z"/></symbol><symbol viewBox="0 0 24 24" id="copy" xmlns="http://www.w3.org/2000/svg"><path fill="#fff" d="M19.765 7.129v14.32a2.527 2.527 0 01-2.528 2.528H2.917A2.527 2.527 0 01.39 21.45V7.129a2.527 2.527 0 012.527-2.527h14.32a2.527 2.527 0 012.528 2.527zm-1.685 0a.842.842 0 00-.843-.843H2.917a.842.842 0 00-.843.843v14.32c0 .466.378.843.843.843h14.32a.843.843 0 00.843-.842zm5.897-4.212V18.08a2.527 2.527 0 01-2.527 2.527.843.843 0 010-1.685.842.842 0 00.842-.842V2.917a.842.842 0 00-.842-.842H6.287a.842.842 0 00-.843.842.842.842 0 01-1.685 0A2.527 2.527 0 016.287.39H21.45a2.527 2.527 0 012.527 2.527z"/></symbol><symbol viewBox="0 0 31 31" id="dailymotion" xmlns="http://www.w3.org/2000/svg"><path fill="#fff" d="M31 15.626a15.197 15.197 0 01-4.467 10.782 15.192 15.192 0 01-10.783 4.467 15.2 15.2 0 01-10.784-4.468A15.194 15.194 0 01.5 15.625 15.198 15.198 0 014.967 4.841 15.2 15.2 0 0115.75.375a15.192 15.192 0 0110.784 4.467A15.196 15.196 0 0131 15.626zm-1.42 0a13.74 13.74 0 00-4.05-9.78 13.738 13.738 0 00-9.779-4.05c-7.626 0-13.83 6.203-13.83 13.828a13.74 13.74 0 004.05 9.78 13.74 13.74 0 009.778 4.051h.001c7.626 0 13.83-6.204 13.83-13.83zM21.962 5.148v18.348l-3.795.007.005-1.504c-.001.155-.646.56-.773.65a4.614 4.614 0 01-.974.542c-1.271.506-2.7.526-4.01.149-.68-.196-1.413-.62-1.99-1.024-2.023-1.42-2.913-4.153-2.619-6.544a6.504 6.504 0 01.504-1.773c.404-.917 1.069-1.698 1.825-2.346.972-.832 2.236-1.36 3.495-1.553 2.919-.447 4.388 1.598 4.388 1.598V5.99zm-3.745 11.655a3.306 3.306 0 10-6.613 0 3.306 3.306 0 006.613 0z"/></symbol><symbol viewBox="0 0 37 30" id="download" xmlns="http://www.w3.org/2000/svg"><path d="M25.663 21.636l-2.006 2.563-2.102 2.684-2.004 2.563c-.58.738-1.525.738-2.103 0l-2.006-2.563-2.102-2.684-2.005-2.563c-.579-.738-.276-1.341.673-1.341h3.188V11.34h6.608v8.955h3.187c.949 0 1.251.603.672 1.34zM37 15.666c0 4.84-4 8.764-8.933 8.764h-2.434l1.387-1.772c.687-.878.838-1.863.414-2.71-.425-.845-1.316-1.33-2.445-1.33h-1.476V9.664H13.486v8.952H12.01c-1.129 0-2.02.486-2.444 1.33-.424.843-.274 1.832.414 2.712l1.386 1.77H7.064C3.164 24.429 0 21.326 0 17.5c0-3.647 2.875-6.63 6.521-6.903 0-.01-.003-.017-.003-.027C6.518 4.734 11.342 0 17.293 0c4.645.001 8.594 2.893 10.106 6.935.221-.015.444-.032.67-.032 4.932 0 8.93 3.925 8.93 8.765z"/></symbol><symbol viewBox="0 0 27 28" id="espn" xmlns="http://www.w3.org/2000/svg"><path fill="#fff" d="M26.809.566l-.974 7.89H2.336L3.31.566zM9.118 17.916l-.194 1.57h15.549l-.974 7.889H0l2.142-17.349h23.499l-.974 7.89z"/></symbol><symbol viewBox="0 0 30 31" id="facebook" xmlns="http://www.w3.org/2000/svg"><path fill="#fff" d="M29.992 15.37c0-8.286-6.717-15.002-15.004-15.002C6.702.368-.015 7.084-.015 15.37c0 8.287 6.717 15.003 15.003 15.003.089 0 .176 0 .264-.006V18.694H12.03v-3.757h3.223v-2.766c0-3.206 1.958-4.952 4.818-4.952 1.371 0 2.55.1 2.889.146v3.353h-1.97c-1.552 0-1.857.738-1.857 1.822v2.391h3.721l-.486 3.757h-3.235v11.106c6.27-1.8 10.86-7.572 10.86-14.423z"/></symbol><symbol viewBox="0 0 9 16" id="fb" xmlns="http://www.w3.org/2000/svg"><path d="M8.25 0H6.71C4.486 0 3 1.609 3 4v1.6H.75c-.736 0-.75-.009-.75.8V8c0 .823-.003.8.75.8H3V16h3V8.8h2.25c.724 0 .75-.033.75-.8V6.4c0-.792-.116-.8-.75-.8H6V4c0-.74-.007-.799 1.5-.799h.75c.743 0 .75.012.75-.801V.8c0-.782.033-.8-.75-.8z"/></symbol><symbol viewBox="0 0 31 32" id="flickr" xmlns="http://www.w3.org/2000/svg"><path fill="#fff" d="M30.998 16.004c0 8.358-6.776 15.134-15.134 15.134S.73 24.362.73 16.004 7.506.87 15.864.87s15.134 6.776 15.134 15.134zm-16.525 0c0-2.99-2.233-5.415-4.987-5.415S4.5 13.013 4.5 16.004c0 2.99 2.233 5.414 4.987 5.414s4.987-2.424 4.987-5.414zm12.756-.065c0-2.954-2.297-5.35-5.13-5.35-2.835 0-5.131 2.396-5.131 5.35 0 2.955 2.296 5.35 5.13 5.35s5.131-2.395 5.131-5.35z"/></symbol><symbol viewBox="0 0 24 20" id="headphones" xmlns="http://www.w3.org/2000/svg"><path fill="#4caf4f" d="M24 17.817a7.212 7.212 0 01-.35.913 2.158 2.158 0 01-1.705 1.212c-.77.073-1.552.016-2.354.016V10.53a8.541 8.541 0 00-.305-2.4 7.623 7.623 0 00-1.653-2.978c-2.759-3.08-7.517-3.364-10.629-.631a7.432 7.432 0 00-2.37 3.94 9 9 0 00-.218 2.07v9.439a.63.63 0 01-.115.024c-.665 0-1.33.017-1.992 0a2.307 2.307 0 01-1.711-.884A2.973 2.973 0 010 17.779v-5.62c0-.036.024-.072.031-.108a2.47 2.47 0 011.596-1.975.216.216 0 00.154-.237c.022-.791.138-1.577.345-2.341A10.341 10.341 0 016.365 1.68 10 10 0 0110.378.13a10.29 10.29 0 013.9.124c1.042.236 2.038.638 2.952 1.188.716.427 1.378.939 1.97 1.524.604.599 1.132 1.27 1.572 1.996.5.829.878 1.724 1.12 2.66a9.21 9.21 0 01.313 2.19.267.267 0 00.204.274c.517.18.946.547 1.2 1.029.15.338.278.685.384 1.038v5.664zM5.246 15.022v-4.021a.864.864 0 011.143-.86.81.81 0 01.598.693c.011.08.017.159.016.238v7.93a.874.874 0 01-.772.969.879.879 0 01-.982-.82c-.017-.735 0-1.467 0-2.201-.003-.64-.004-1.283-.003-1.928zm13.51.029v4.002a.9.9 0 01-.974.927.87.87 0 01-.773-.749 2.467 2.467 0 01-.015-.283v-7.843a.999.999 0 01.19-.68.89.89 0 01.982-.28.83.83 0 01.585.785v4.116z"/></symbol><symbol viewBox="0 0 30 13" id="imdb" xmlns="http://www.w3.org/2000/svg"><path fill="#fff" d="M0 .528h3.19v12.293H0zm4.081 6.147V.529h2.06c1.135 0 2.073.014 2.083.032.014.023.197 1.262.408 2.76.211 1.495.394 2.753.413 2.79.033.09-.015.404.385-2.744.182-1.446.342-2.675.351-2.735l.024-.104 2.078.01 2.073.014v12.245l-1.393.014-1.398.01-.01-4.068-.013-4.072-.226 1.665c-.122.915-.361 2.698-.525 3.965a138.059 138.059 0 01-.333 2.402c-.019.108-.023.108-1.004.108-.98 0-.985 0-1.008-.108a353.91 353.91 0 01-.563-3.88c-.296-2.079-.55-3.81-.559-3.847-.01-.038-.019 1.707-.023 3.88l-.005 3.955H4.081V6.675zM14.871.528h1.632c1.652 0 2.89.052 3.49.146 1.16.178 1.872.755 2.126 1.717.108.408.16 1.905.16 4.588.004 2.483-.048 3.886-.142 4.28-.197.793-.69 1.243-1.59 1.45-.305.07-.708.084-3.012.098l-2.664.024zm3.471 2.126l-.281-.028v8.098l.253-.028c.343-.033.535-.145.624-.347.122-.3.164-1.563.145-4.425-.023-3.03-.018-3.012-.314-3.162a1.542 1.542 0 00-.427-.108zm4.645 4.02V.529h3.05V1.96c0 .788.008 1.431.018 1.431.01 0 .089-.065.173-.15.268-.249.676-.488.99-.577.375-.108 1.032-.108 1.445-.005.591.15.952.45 1.21 1L30 3.93v3.636c0 3.34-.005 3.664-.085 3.965-.107.413-.253.661-.539.92-.572.515-1.454.69-2.19.44-.3-.103-.826-.45-1.005-.666l-.135-.169-.052.197c-.028.104-.075.277-.099.38l-.051.188h-2.857V6.675zm3.325-2.293c-.253.093-.253.065-.267 3.157-.014 3.116 0 3.407.202 3.58a.383.383 0 00.52 0c.109-.094.127-.155.17-.549.023-.253.037-1.614.028-3.12-.02-2.951-.02-2.937-.3-3.054-.179-.076-.184-.076-.353-.014z"/></symbol><symbol viewBox="0 0 8 29" id="imgur" xmlns="http://www.w3.org/2000/svg"><path fill="#fff" d="M7.139 24.147c0 2.343-1.612 4.262-3.58 4.262s-3.58-1.92-3.58-4.262V12.735c0-2.343 1.612-4.262 3.58-4.262s3.58 1.92 3.58 4.262zm0-20.561a3.584 3.584 0 01-3.58 3.586 3.583 3.583 0 01-3.58-3.586A3.584 3.584 0 013.559 0a3.584 3.584 0 013.58 3.586z"/></symbol><symbol viewBox="0 0 16 16" id="insta" xmlns="http://www.w3.org/2000/svg"><path d="M16.001 4.415v7.17A4.421 4.421 0 0111.585 16H4.416A4.42 4.42 0 010 11.584V4.415A4.42 4.42 0 014.416 0h7.169a4.421 4.421 0 014.416 4.415zm-1.42 7.17v-7.17a3 3 0 00-2.996-2.995H4.416A2.999 2.999 0 001.42 4.415v7.17a2.999 2.999 0 002.996 2.995h7.169a3 3 0 002.995-2.996zM12.122 8A4.127 4.127 0 018 12.122a4.127 4.127 0 01-4.123-4.121A4.128 4.128 0 018 3.877a4.128 4.128 0 014.123 4.124zm-1.42 0A2.706 2.706 0 008 5.297a2.707 2.707 0 00-2.705 2.704A2.707 2.707 0 008 10.704 2.706 2.706 0 0010.703 8zm2.33-5.022c.192.192.305.461.305.736 0 .273-.113.542-.306.736a1.056 1.056 0 01-.736.305c-.274 0-.541-.112-.736-.305a1.055 1.055 0 01-.305-.736 1.047 1.047 0 011.041-1.042c.274 0 .544.111.736.306z"/></symbol><symbol viewBox="0 0 16 16" id="instagram" xmlns="http://www.w3.org/2000/svg"><path d="M16.001 4.415v7.17A4.421 4.421 0 0111.585 16H4.416A4.42 4.42 0 010 11.584V4.415A4.42 4.42 0 014.416 0h7.169a4.421 4.421 0 014.416 4.415zm-1.42 7.17v-7.17a3 3 0 00-2.996-2.995H4.416A2.999 2.999 0 001.42 4.415v7.17a2.999 2.999 0 002.996 2.995h7.169a3 3 0 002.995-2.996zM12.122 8A4.127 4.127 0 018 12.122a4.127 4.127 0 01-4.123-4.121A4.128 4.128 0 018 3.877a4.128 4.128 0 014.123 4.124zm-1.42 0A2.706 2.706 0 008 5.297a2.707 2.707 0 00-2.705 2.704A2.707 2.707 0 008 10.704 2.706 2.706 0 0010.703 8zm2.33-5.022c.192.192.305.461.305.736 0 .273-.113.542-.306.736a1.056 1.056 0 01-.736.305c-.274 0-.541-.112-.736-.305a1.055 1.055 0 01-.305-.736 1.047 1.047 0 011.041-1.042c.274 0 .544.111.736.306z"/></symbol><symbol viewBox="0 0 37 30" id="izlesene" xmlns="http://www.w3.org/2000/svg"><path d="M25.663 21.636l-2.006 2.563-2.102 2.684-2.004 2.563c-.58.738-1.525.738-2.103 0l-2.006-2.563-2.102-2.684-2.005-2.563c-.579-.738-.276-1.341.673-1.341h3.188V11.34h6.608v8.955h3.187c.949 0 1.251.603.672 1.34zM37 15.666c0 4.84-4 8.764-8.933 8.764h-2.434l1.387-1.772c.687-.878.838-1.863.414-2.71-.425-.845-1.316-1.33-2.445-1.33h-1.476V9.664H13.486v8.952H12.01c-1.129 0-2.02.486-2.444 1.33-.424.843-.274 1.832.414 2.712l1.386 1.77H7.064C3.164 24.429 0 21.326 0 17.5c0-3.647 2.875-6.63 6.521-6.903 0-.01-.003-.017-.003-.027C6.518 4.734 11.342 0 17.293 0c4.645.001 8.594 2.893 10.106 6.935.221-.015.444-.032.67-.032 4.932 0 8.93 3.925 8.93 8.765z"/></symbol><symbol viewBox="0 0 48 48" id="kwai" xmlns="http://www.w3.org/2000/svg"><path d="M0 0h48v48H0z" fill="none"/><path d="M34 21v-7c0-1.1-.9-2-2-2H8c-1.1 0-2 .9-2 2v20c0 1.1.9 2 2 2h24c1.1 0 2-.9 2-2v-7l8 8V13l-8 8z"/></symbol><symbol viewBox="0 0 30 27" id="likee" xmlns="http://www.w3.org/2000/svg"><path fill="#fff" d="M22.019.537c-1.627 0-3.119.516-4.433 1.533-1.26.975-2.1 2.216-2.594 3.12-.494-.904-1.334-2.145-2.594-3.12C11.083 1.053 9.59.537 7.964.537 3.424.537 0 4.251 0 9.176c0 5.32 4.272 8.96 10.738 14.471 1.098.936 2.343 1.997 3.637 3.128a.935.935 0 001.233 0 364.8 364.8 0 013.638-3.128c6.466-5.51 10.737-9.15 10.737-14.471 0-4.925-3.424-8.639-7.964-8.639z"/></symbol><symbol viewBox="0 0 512 512" id="linkedin" xmlns="http://www.w3.org/2000/svg"><path d="M160.008 423h-70V197h70zm6.984-298.004c0-22.629-18.36-40.996-40.976-40.996C103.312 84 85 102.367 85 124.996 85 147.633 103.313 166 126.016 166c22.617 0 40.976-18.367 40.976-41.004zM422 298.664C422 237.996 409.184 193 338.312 193c-34.054 0-56.914 17.031-66.246 34.742H272V197h-68v226h68V310.79c0-29.388 7.48-57.856 43.906-57.856 35.93 0 37.094 33.605 37.094 59.722V423h69zM512 452V60c0-33.086-26.914-60-60-60H60C26.914 0 0 26.914 0 60v392c0 33.086 26.914 60 60 60h392c33.086 0 60-26.914 60-60zM452 40c11.027 0 20 8.973 20 20v392c0 11.027-8.973 20-20 20H60c-11.027 0-20-8.973-20-20V60c0-11.027 8.973-20 20-20zm0 0"/></symbol><symbol viewBox="0 0 37 30" id="liveleak" xmlns="http://www.w3.org/2000/svg"><path d="M25.663 21.636l-2.006 2.563-2.102 2.684-2.004 2.563c-.58.738-1.525.738-2.103 0l-2.006-2.563-2.102-2.684-2.005-2.563c-.579-.738-.276-1.341.673-1.341h3.188V11.34h6.608v8.955h3.187c.949 0 1.251.603.672 1.34zM37 15.666c0 4.84-4 8.764-8.933 8.764h-2.434l1.387-1.772c.687-.878.838-1.863.414-2.71-.425-.845-1.316-1.33-2.445-1.33h-1.476V9.664H13.486v8.952H12.01c-1.129 0-2.02.486-2.444 1.33-.424.843-.274 1.832.414 2.712l1.386 1.77H7.064C3.164 24.429 0 21.326 0 17.5c0-3.647 2.875-6.63 6.521-6.903 0-.01-.003-.017-.003-.027C6.518 4.734 11.342 0 17.293 0c4.645.001 8.594 2.893 10.106 6.935.221-.015.444-.032.67-.032 4.932 0 8.93 3.925 8.93 8.765z"/></symbol><symbol viewBox="0 0 1024 1024" id="mashable" xmlns="http://www.w3.org/2000/svg"><path fill="#fff" d="M153.6 0h715.378C955.734 0 1024 68.267 1024 153.6v715.378c0 85.333-68.267 153.6-153.6 153.6H153.6C68.267 1024 0 955.734 0 870.4V153.6C0 68.267 68.267 0 153.6 0z"/><path fill="#0084ff" d="M411.022 241.778c15.644 52.622 31.289 105.244 45.511 157.867 19.911 65.422 35.556 132.267 49.778 200.533 1.422 5.689 1.422 11.378 5.689 17.067 15.644-65.422 32.711-129.422 51.2-193.422 18.489-59.733 38.4-120.889 56.889-180.622H780.8c9.956 180.622 19.911 359.822 29.867 540.444H691.2c-5.689-143.644-12.8-285.867-14.222-429.511-1.422 4.267-2.844 9.956-4.267 14.222-25.6 100.978-58.311 200.533-89.6 300.089-11.378 35.556-22.756 71.111-32.711 106.667h-96.711c-18.489-64-35.556-128-52.622-192-21.333-75.378-38.4-152.178-54.044-228.978-1.422 14.222-1.422 28.444-2.844 42.667-2.844 128-9.956 256-17.067 385.422H213.334c11.378-180.622 22.756-359.822 34.133-540.444h163.556z"/></symbol><symbol viewBox="0 0 17 17" id="mess" xmlns="http://www.w3.org/2000/svg"><path fill="#ffb800" d="M16.803 9.248a8.203 8.203 0 01-7.362 7.728 8.133 8.133 0 01-3.46-.404l-3.114.538a1.2 1.2 0 01-.691-.077 1.213 1.213 0 01-.635-1.595l.673-1.596a8.081 8.081 0 01-1.153-2.018 7.778 7.778 0 01-.558-2.73 8.15 8.15 0 017.92-8.4 8.22 8.22 0 016.054 2.441 8.101 8.101 0 012.326 6.113zm-8.13 2.25a.62.62 0 00-.616-.616H5.924a.62.62 0 00-.615.615.62.62 0 00.615.615h2.133a.607.607 0 00.615-.615zm3.325-2.5a.62.62 0 00-.615-.615h-5.46a.607.607 0 00-.614.615.62.62 0 00.615.615h5.459a.62.62 0 00.615-.615zm0-2.518a.62.62 0 00-.615-.615h-5.46a.62.62 0 00-.614.615.62.62 0 00.615.615h5.459a.633.633 0 00.615-.615z"/></symbol><symbol viewBox="0 0 1075 1024" id="movie" xmlns="http://www.w3.org/2000/svg"><path fill="#00bcd5" d="M236.8 67.328c85.094 0 154.112 67.174 154.112 150.016 0 82.944-69.018 150.118-154.112 150.118S82.688 300.288 82.688 217.395 151.706 67.328 236.8 67.328zM612.864 0C716.8 0 800.973 82.022 800.973 183.194S716.8 366.336 612.915 366.336c-103.834 0-188.058-81.971-188.058-183.142S509.081 0 612.863 0zM1075.2 539.648V888.32c0 37.53-40.755 60.723-74.752 41.984l-143.872-80.589v96c0 43.008-36.25 78.336-80.435 78.336H80.384C36.25 1024 0 988.672 0 945.664V482.202c0-43.008 36.25-78.336 80.435-78.336h695.603c44.237 0 80.486 35.328 80.486 78.336v96l144.947-80.538c32.87-18.79 74.752 4.403 73.626 41.933zM547.277 690.842L368.128 588.135c-19.251-11.008-43.008 2.202-43.008 23.194v205.21c0 20.992 23.757 34.202 43.008 23.194l179.046-102.605c8.622-4.299 14.441-13.054 14.441-23.168s-5.819-18.87-14.292-23.1l-.149-.068z"/></symbol><symbol viewBox="0 0 22 20" id="muted" xmlns="http://www.w3.org/2000/svg"><path fill="#ff971a" d="M13.915 6.16l.033 13.236a.609.609 0 01-.965.487L5.688 14.53a.591.591 0 00-.36-.117l-4.602.017a.602.602 0 01-.48-.235.603.603 0 01-.245-.49l.096-7.627a.605.605 0 01.613-.595l4.602.094a.606.606 0 00.361-.115L13.136.101a.532.532 0 01.847.436L13.912 6.1l.003.06zm7.984 5.523a.343.343 0 010 .487l-.78.776a.347.347 0 01-.49 0l-1.692-1.683-1.695 1.683a.347.347 0 01-.49 0l-.78-.776a.343.343 0 010-.487L17.665 10l-1.693-1.684a.343.343 0 010-.486l.78-.776a.348.348 0 01.49 0l1.695 1.683 1.69-1.683a.348.348 0 01.489 0l.78.776a.343.343 0 010 .486L20.204 10z"/></symbol><symbol viewBox="0 0 17 28" id="odnoklassniki" xmlns="http://www.w3.org/2000/svg"><path fill="#fff" d="M1.222 7.793c0-4.043 3.273-7.32 7.31-7.32 4.037 0 7.309 3.277 7.309 7.32s-3.273 7.32-7.31 7.32c-4.034-.004-7.304-3.279-7.309-7.32zm3.374 0a3.939 3.939 0 003.936 3.942 3.939 3.939 0 003.935-3.942 3.939 3.939 0 00-3.935-3.942 3.939 3.939 0 00-3.936 3.942zM12.4 20.156c-.2.06-.405.118-.615.172l3.393 3.325.055.055c.864.893.841 2.32-.05 3.185a2.247 2.247 0 01-3.181-.051l-3.47-3.597-3.464 3.59a2.246 2.246 0 01-3.235.007 2.255 2.255 0 01.048-3.185L5.28 20.33c-.211-.052-.415-.11-.613-.171a12.965 12.965 0 01-3.295-1.577 2.84 2.84 0 01-1.274-2.365 2.046 2.046 0 011.144-1.863c.73-.362 1.6-.28 2.25.212a8.546 8.546 0 0010.08 0 2.133 2.133 0 012.25-.212 2.043 2.043 0 011.143 1.864 2.836 2.836 0 01-1.274 2.365 12.92 12.92 0 01-3.291 1.574z"/></symbol><symbol viewBox="0 0 26 31" id="pinterest" xmlns="http://www.w3.org/2000/svg"><path fill="#fff" d="M13.187.158C4.823.158.375 5.516.375 11.358c0 2.71 1.515 6.09 3.939 7.161.368.166.568.096.65-.246.073-.259.391-1.508.546-2.097a.54.54 0 00-.13-.53c-.805-.93-1.444-2.626-1.444-4.216 0-4.075 3.24-8.032 8.755-8.032 4.768 0 8.104 3.097 8.104 7.526 0 5.006-2.65 8.469-6.092 8.469-1.905 0-3.324-1.495-2.874-3.345.543-2.202 1.61-4.57 1.61-6.159 0-1.425-.805-2.603-2.45-2.603-1.94 0-3.513 1.92-3.513 4.498 0 1.638.58 2.744.58 2.744s-1.919 7.75-2.275 9.197c-.603 2.45.082 6.419.14 6.76.037.189.249.248.367.094.189-.248 2.508-3.557 3.159-5.948.236-.872 1.207-4.405 1.207-4.405.639 1.154 2.483 2.12 4.448 2.12 5.844 0 10.067-5.135 10.067-11.508-.021-6.11-5.251-10.68-11.982-10.68z"/></symbol><symbol viewBox="0 0 24 24" id="reddit" xmlns="http://www.w3.org/2000/svg"><path d="M24 11.779a2.654 2.654 0 00-4.497-1.899c-1.81-1.191-4.259-1.949-6.971-2.046l1.483-4.669 4.016.941-.006.058a2.17 2.17 0 002.174 2.163 2.17 2.17 0 002.172-2.163 2.171 2.171 0 00-4.193-.785l-4.329-1.015a.37.37 0 00-.44.249L11.755 7.82c-2.838.034-5.409.798-7.3 2.025a2.643 2.643 0 00-1.799-.712A2.654 2.654 0 000 11.779c0 .97.533 1.811 1.317 2.271a4.716 4.716 0 00-.086.857C1.231 18.818 6.039 22 11.95 22s10.72-3.182 10.72-7.093c0-.274-.029-.544-.075-.81A2.633 2.633 0 0024 11.779zM6.776 13.595c0-.868.71-1.575 1.582-1.575.872 0 1.581.707 1.581 1.575s-.709 1.574-1.581 1.574-1.582-.706-1.582-1.574zm9.061 4.669c-.797.793-2.048 1.179-3.824 1.179L12 19.44l-.013.003c-1.777 0-3.028-.386-3.824-1.179a.369.369 0 010-.523.372.372 0 01.526 0c.65.647 1.729.961 3.298.961l.013.003.013-.003c1.569 0 2.648-.315 3.298-.962a.373.373 0 01.526 0 .37.37 0 010 .524zm-.189-3.095a1.58 1.58 0 01-1.581-1.574c0-.868.709-1.575 1.581-1.575s1.581.707 1.581 1.575-.709 1.574-1.581 1.574z"/></symbol><symbol viewBox="0 0 30 17" id="soundcloud" xmlns="http://www.w3.org/2000/svg"><path fill="#fff" d="M30 12.187a4.69 4.69 0 01-4.687 4.688h-9.375a.938.938 0 01-.938-.937v-15c0-.518.42-.938.938-.938 4.37 0 7.976 3.341 8.397 7.603A4.693 4.693 0 0130 12.188zM12.188 1.875c.517 0 .937.42.937.937v13.126a.938.938 0 01-1.875 0V2.812c0-.517.42-.937.938-.937zm-3.75 3.75c.517 0 .937.42.937.937v9.376a.938.938 0 01-1.875 0V6.562c0-.517.42-.937.938-.937zm-4.688.937a.938.938 0 011.875 0v9.376a.938.938 0 01-1.875 0zM0 15.938v-5.625a.938.938 0 011.875 0v5.625a.938.938 0 01-1.875 0z"/></symbol><symbol viewBox="0 0 30 31" id="ted" xmlns="http://www.w3.org/2000/svg"><path fill="#fff" d="M21.255 11.518c2.251 0 3.126 2.251 3.126 3.939 0 2.063-.75 4.189-3.126 4.189H18.13v-8.128zm-1.25 6.252h.625c1.313 0 1.876-.438 1.876-2.313 0-1.876-.625-2.063-1.876-2.063h-.625zm-8.127-6.252h5.626v1.876h-3.75v1.25h3.75v1.876h-3.75v1.25h3.75v1.876h-5.626zm-4.376 1.876H5.626v-1.876h5.627v1.876H9.377v6.252H7.502zm22.506 2.188c0 8.314-6.69 15.003-15.004 15.003A14.968 14.968 0 010 15.582C0 7.267 6.69.578 15.004.578c8.315 0 15.004 6.69 15.004 15.004zm-3.126 0c0-6.564-5.314-11.878-11.878-11.878S3.126 9.018 3.126 15.582 8.44 27.46 15.004 27.46s11.878-5.314 11.878-11.878z"/></symbol><symbol viewBox="0 0 27 31" id="tiktok" xmlns="http://www.w3.org/2000/svg"><path fill="#fff" d="M27.016 8.065a7.614 7.614 0 01-4.598-1.535A7.617 7.617 0 0119.38.512h-4.93V13.97l-.007 7.372a4.458 4.458 0 01-3.065 4.23 4.484 4.484 0 01-1.657.219 4.448 4.448 0 01-2.041-.625 4.457 4.457 0 01-2.182-3.757c-.037-2.492 1.98-4.523 4.473-4.523.492 0 .964.08 1.407.226V12.11a9.717 9.717 0 00-1.422-.105A9.46 9.46 0 002.85 15.18a9.232 9.232 0 00-2.333 5.574 9.22 9.22 0 002.752 7.188 9.463 9.463 0 006.686 2.734c.48 0 .955-.035 1.422-.104a9.427 9.427 0 005.264-2.63 9.215 9.215 0 002.77-6.562l-.026-11.008a12.458 12.458 0 002.77 1.613c1.547.652 3.187.983 4.875.982V8.064c.001.001-.013.001-.014.001z"/></symbol><symbol viewBox="0 0 19 31" id="tumblr" xmlns="http://www.w3.org/2000/svg"><path fill="#fff" d="M18.383 28.376c-.027-.093-.668-2.275-1.249-3.746a.615.615 0 00-.926-.283 2.88 2.88 0 01-2.83.246 2.282 2.282 0 01-1.122-2.199v-8h4.306c.34 0 .615-.276.615-.616V8.854a.615.615 0 00-.615-.615h-4.306v-6.77a.615.615 0 00-.615-.616H6.72a.615.615 0 00-.615.615c0 4.58-2.924 8.002-5.537 8.002a.615.615 0 00-.615.615v3.693c0 .34.275.616.615.616h4.306v9.232c0 4.308 2.69 6.77 7.382 6.77 2.025.04 4.029-.41 5.842-1.313a.616.616 0 00.285-.707z"/></symbol><symbol viewBox="0 0 26 28" id="twich" xmlns="http://www.w3.org/2000/svg"><path fill="#fff" d="M1.777.359h24.217v16.496l-7.089 7.066H13.59l-3.54 3.537H6.501v-3.535H.006V5.073zm2.362 19.439h5.319v3.53l3.54-3.53h6.498l4.136-4.124V2.713H4.139zm6.5-12.369h2.36v7.069h-2.36zm6.494 0h2.362v7.069h-2.362z"/></symbol><symbol viewBox="0 0 19 16" id="twitter" xmlns="http://www.w3.org/2000/svg"><path d="M18.477.296a7.682 7.682 0 01-2.477.98A3.822 3.822 0 0013.155 0c-2.154 0-3.9 1.81-3.9 4.04 0 .316.036.625.104.92C6.118 4.792 3.247 3.184 1.324.74a4.127 4.127 0 00-.527 2.029c0 1.403.688 2.64 1.733 3.363a3.773 3.773 0 01-1.764-.508v.05c0 1.958 1.343 3.59 3.124 3.964a3.764 3.764 0 01-1.761.068c.497 1.604 1.936 2.773 3.643 2.806a7.652 7.652 0 01-5.773 1.673A10.77 10.77 0 005.976 16c7.169 0 11.09-6.157 11.09-11.495l-.014-.523A8.005 8.005 0 0019 1.894a7.59 7.59 0 01-2.239.636A4.046 4.046 0 0018.477.296z"/></symbol><symbol viewBox="0 0 12 15" id="user" xmlns="http://www.w3.org/2000/svg"><path fill="#ffb800" d="M3.444 6.5a3.338 3.338 0 01-1.01-2.44c0-.947.34-1.767 1.01-2.438.67-.67 1.49-1.01 2.438-1.01.947 0 1.767.34 2.438 1.01.67.67 1.01 1.491 1.01 2.439S8.99 5.829 8.32 6.5c-.67.67-1.49 1.01-2.438 1.01-.948 0-1.768-.34-2.438-1.01zm8.5 5.97c0 .748-.237 1.354-.706 1.8-.463.44-1.075.664-1.82.664H2.526c-.744 0-1.356-.224-1.819-.664C.238 13.823 0 13.218 0 12.47c0-.287.01-.571.029-.845.02-.28.058-.585.116-.906.058-.324.132-.63.222-.91a4.5 4.5 0 01.374-.848c.16-.284.35-.531.563-.735.223-.213.496-.384.81-.509a2.797 2.797 0 011.034-.187c.146 0 .288.06.56.237l.585.377c.187.12.441.232.755.333a3 3 0 00.924.15c.307 0 .617-.051.924-.15.313-.101.568-.214.755-.333.22-.14.416-.267.584-.376.273-.178.414-.238.56-.238.372 0 .72.063 1.034.187.315.125.588.296.81.509.213.204.403.451.564.735.155.274.281.56.374.848a8.348 8.348 0 01.338 1.815c.02.273.029.558.03.846z"/></symbol><symbol viewBox="0 0 28 24" id="vimeo" xmlns="http://www.w3.org/2000/svg"><path fill="#fff" d="M24.15.167C20.357.03 17.796 2.2 16.445 6.643c.695-.31 1.37-.45 2.024-.45 1.389 0 2.003.794 1.839 2.369-.082.954-.693 2.341-1.836 4.167-1.15 1.825-2.009 2.74-2.581 2.74-1.734 0-2.776-8.284-3.13-10.547-.49-3.144-1.8-4.615-3.927-4.409C6.883.7 3.475 4.208.798 6.587l1.286 1.675c1.225-.867 1.94-1.301 2.143-1.301 2.132 0 3.164 7.24 4.82 12.626 1.11 2.972 2.442 4.458 4.047 4.458 2.58 0 5.721-2.438 9.444-7.318 3.595-4.67 5.457-8.352 5.576-11.037l.015-.011c.153-3.6-1.163-5.442-3.98-5.512z"/></symbol><symbol viewBox="0 0 30 19" id="vk" xmlns="http://www.w3.org/2000/svg"><path fill="#fff" d="M24.895 10.822c-.485-.614-.347-.887 0-1.435.006-.007 4.01-5.549 4.422-7.429h.003c.205-.686 0-1.19-.992-1.19h-3.28c-.835 0-1.22.433-1.426.916 0 0-1.67 4.005-4.032 6.6-.763.75-1.116.991-1.532.991-.205 0-.524-.24-.524-.925V1.957c0-.821-.233-1.188-.925-1.188h-5.157c-.524 0-.835.383-.835.74 0 .779 1.181.958 1.304 3.15v4.754c0 1.042-.19 1.233-.608 1.233-1.115 0-3.821-4.02-5.425-8.623C5.564 1.131 5.248.77 4.406.77h-3.28C.188.77 0 1.202 0 1.685c0 .855 1.115 5.1 5.185 10.71 2.713 3.83 6.533 5.905 10.008 5.905 2.089 0 2.344-.46 2.344-1.253 0-3.66-.189-4.005.858-4.005.484 0 1.32.24 3.27 2.087 2.228 2.19 2.595 3.17 3.842 3.17h3.28c.935 0 1.41-.46 1.137-1.37-.624-1.911-4.84-5.844-5.03-6.107z"/></symbol><symbol viewBox="0 0 20 16" id="youtube" xmlns="http://www.w3.org/2000/svg"><path d="M20 2.939V13.06c0 1.624-1.28 2.94-2.857 2.94H2.857C1.28 16 0 14.684 0 13.061V2.94C0 1.316 1.28 0 2.857 0h14.285C18.72 0 20 1.316 20 2.94zm-6.137 4.397L8.169 3.954c-.616-.366-1.121-.067-1.121.666v6.761c0 .732.505 1.032 1.121.666l5.694-3.38c.617-.367.617-.966 0-1.331z"/></symbol><symbol viewBox="0 0 31 22" id="youtube-2" xmlns="http://www.w3.org/2000/svg"><path fill="#fff" d="M31 11.413s0 4.917-.623 7.288a3.795 3.795 0 01-2.67 2.67c-2.37.625-11.847.625-11.847.625s-9.454 0-11.849-.65a3.796 3.796 0 01-2.669-2.67C.72 16.33.72 11.388.72 11.388s0-4.917.623-7.287a3.872 3.872 0 012.67-2.696C6.38.781 15.858.781 15.858.781s9.479 0 11.849.65a3.794 3.794 0 012.668 2.67c.65 2.37.624 7.312.624 7.312zm-10.276-.025L12.84 6.846v9.085z"/></symbol></svg>